<svg width="78" height="36" viewBox="0 0 78 36" fill="none" xmlns="http://www.w3.org/2000/svg">
<rect x="1.0166" y="0.5" width="76.4834" height="35" rx="7.5" stroke="#393F43"/>
<path d="M22.5166 20C22.5166 20.8284 23.1882 21.5 24.0166 21.5C24.845 21.5 25.5166 20.8284 25.5166 20C25.5166 19.1716 24.845 18.5 24.0166 18.5C23.1882 18.5 22.5166 19.1716 22.5166 20Z" stroke="#393F43" stroke-width="1.5"/>
<path d="M25.4166 14C25.4822 13.6769 25.5166 13.3425 25.5166 13C25.5166 10.2386 23.278 8 20.5166 8C17.7552 8 15.5166 10.2386 15.5166 13C15.5166 13.3425 15.551 13.6769 15.6166 14" stroke="#393F43" stroke-width="1.5"/>
<path d="M13.5166 13.9932H22.5166C25.345 13.9932 26.7592 13.9932 27.6379 14.8723C28.5166 15.7514 28.5166 17.1663 28.5166 19.9961V21.9971C28.5166 24.8269 28.5166 26.2418 27.6379 27.1209C26.7592 28 25.345 28 22.5166 28H16.5166C12.7454 28 10.8597 28 9.68817 26.8279C8.5166 25.6557 8.5166 23.7692 8.5166 19.9961V17.9952C8.5166 14.2221 8.5166 12.3356 9.68817 11.1634C10.6313 10.2199 12.037 10.0359 14.5166 10H16.5166" stroke="#393F43" stroke-width="1.5" stroke-linecap="round"/>
<path d="M36.9846 14.7V13.023H40.1176V22.5H38.2456V14.7H36.9846ZM41.9156 17.638C41.9156 16.1387 42.1842 14.9643 42.7216 14.115C43.2676 13.2657 44.1689 12.841 45.4256 12.841C46.6822 12.841 47.5792 13.2657 48.1166 14.115C48.6626 14.9643 48.9356 16.1387 48.9356 17.638C48.9356 19.146 48.6626 20.329 48.1166 21.187C47.5792 22.045 46.6822 22.474 45.4256 22.474C44.1689 22.474 43.2676 22.045 42.7216 21.187C42.1842 20.329 41.9156 19.146 41.9156 17.638ZM47.1416 17.638C47.1416 16.9967 47.0982 16.4593 47.0116 16.026C46.9336 15.584 46.7689 15.2243 46.5176 14.947C46.2749 14.6697 45.9109 14.531 45.4256 14.531C44.9402 14.531 44.5719 14.6697 44.3206 14.947C44.0779 15.2243 43.9132 15.584 43.8266 16.026C43.7486 16.4593 43.7096 16.9967 43.7096 17.638C43.7096 18.2967 43.7486 18.8513 43.8266 19.302C43.9046 19.744 44.0692 20.1037 44.3206 20.381C44.5719 20.6497 44.9402 20.784 45.4256 20.784C45.9109 20.784 46.2792 20.6497 46.5306 20.381C46.7819 20.1037 46.9466 19.744 47.0246 19.302C47.1026 18.8513 47.1416 18.2967 47.1416 17.638ZM50.3199 17.638C50.3199 16.1387 50.5885 14.9643 51.1259 14.115C51.6719 13.2657 52.5732 12.841 53.8299 12.841C55.0865 12.841 55.9835 13.2657 56.5209 14.115C57.0669 14.9643 57.3399 16.1387 57.3399 17.638C57.3399 19.146 57.0669 20.329 56.5209 21.187C55.9835 22.045 55.0865 22.474 53.8299 22.474C52.5732 22.474 51.6719 22.045 51.1259 21.187C50.5885 20.329 50.3199 19.146 50.3199 17.638ZM55.5459 17.638C55.5459 16.9967 55.5025 16.4593 55.4159 16.026C55.3379 15.584 55.1732 15.2243 54.9219 14.947C54.6792 14.6697 54.3152 14.531 53.8299 14.531C53.3445 14.531 52.9762 14.6697 52.7249 14.947C52.4822 15.2243 52.3175 15.584 52.2309 16.026C52.1529 16.4593 52.1139 16.9967 52.1139 17.638C52.1139 18.2967 52.1529 18.8513 52.2309 19.302C52.3089 19.744 52.4735 20.1037 52.7249 20.381C52.9762 20.6497 53.3445 20.784 53.8299 20.784C54.3152 20.784 54.6835 20.6497 54.9349 20.381C55.1862 20.1037 55.3509 19.744 55.4289 19.302C55.5069 18.8513 55.5459 18.2967 55.5459 17.638ZM67.3468 14.687V15.675H68.6598V16.871H67.2688C67.1301 17.6943 66.7878 18.2923 66.2418 18.665C65.7045 19.0377 64.8898 19.224 63.7978 19.224V19.913C63.7978 20.3203 63.8801 20.641 64.0448 20.875C64.2181 21.109 64.5085 21.226 64.9158 21.226C65.3058 21.226 65.5875 21.1177 65.7608 20.901C65.9341 20.6757 66.0208 20.3507 66.0208 19.926H67.7108C67.6935 20.8013 67.4465 21.473 66.9698 21.941C66.4931 22.4003 65.8128 22.63 64.9288 22.63C64.0101 22.63 63.3081 22.383 62.8228 21.889C62.3375 21.395 62.0948 20.6757 62.0948 19.731V18.002C63.0221 18.002 63.7068 17.9803 64.1488 17.937C64.5908 17.885 64.9201 17.781 65.1368 17.625C65.3535 17.469 65.4965 17.2177 65.5658 16.871H61.6788V15.675H65.6308V14.687H61.6788V13.413H68.6598V14.687H67.3468Z" fill="#393F43"/>
</svg>
